/* XPM */
static char *_45768bca93b472e91cbacb0a4a3204datxEWHL6wGws4mq2[] = {
/* columns rows colors chars-per-pixel */
"39 36 146 2 ",
"   c #1E1F23",
".  c #1F2023",
"X  c #202124",
"o  c #292727",
"O  c #252629",
"+  c #27282A",
"@  c #2B2A2B",
"#  c #312D27",
"$  c #342F28",
"%  c #3A342B",
"&  c #2E2F30",
"*  c #2F3032",
"=  c #343434",
"-  c #3A3937",
";  c #3B3C3B",
":  c #44392A",
">  c #493739",
",  c #483D38",
"<  c #3B4137",
"1  c #4D402C",
"2  c #52422B",
"3  c #4C493D",
"4  c #624C2B",
"5  c #785B2E",
"6  c #705932",
"7  c gray27",
"8  c #4F4C47",
"9  c #474748",
"0  c #56534D",
"q  c #515150",
"w  c #5D5B55",
"e  c #615D57",
"r  c #796B47",
"t  c #69665D",
"y  c #6D6A5F",
"u  c #726954",
"i  c #767164",
"p  c #717068",
"a  c #B2352C",
"s  c #CF231F",
"d  c #DB2421",
"f  c #CF3F36",
"g  c #EB3F3C",
"h  c #A8593E",
"j  c #926E31",
"k  c #96773C",
"l  c #AD7E2C",
"z  c #A57D34",
"x  c #9F5854",
"c  c #AE5546",
"v  c #88774B",
"b  c #997E4E",
"n  c #BC7C69",
"m  c #C35150",
"M  c #D46058",
"N  c #C57263",
"B  c #788165",
"V  c #B88A37",
"C  c #C08F34",
"Z  c #C89437",
"A  c #C69639",
"S  c #CF9C3A",
"D  c #D79F38",
"F  c #E6A72F",
"G  c #E4AD3D",
"H  c #9D8248",
"J  c #AC8A44",
"K  c #8B8473",
"L  c #A49677",
"P  c #9DA776",
"I  c #D7A845",
"U  c #DEAD41",
"Y  c #C4A254",
"T  c #DCB151",
"R  c #E1AE43",
"E  c #EFB845",
"W  c #E2B34A",
"Q  c #E5B349",
"!  c #F0BA47",
"~  c #F1BF4B",
"^  c #E2B654",
"/  c #EDBD55",
"(  c #E8BB5C",
")  c #F0BF50",
"_  c #D1B56F",
"`  c #E3B560",
"'  c #E5BC65",
"]  c #E8BC60",
"[  c #F2C14E",
"{  c #EFC25C",
"}  c #F2C353",
"|  c #F1C55D",
" . c #ECC362",
".. c #EBC26E",
"X. c #F0C160",
"o. c #F3CA63",
"O. c #F2CB6A",
"+. c #E7C576",
"@. c #F1CC73",
"#. c #F0CD7D",
"$. c #8C8A80",
"%. c #A39A89",
"&. c #B79982",
"*. c #A7A18C",
"=. c #B1A792",
"-. c #B2A992",
";. c #BAAF97",
":. c #B6B0A1",
">. c #BEB6A1",
",. c #BFB8A2",
"<. c #C4B59E",
"1. c #C7BEA7",
"2. c #D2BFA7",
"3. c #EBCB83",
"4. c #E7CC8E",
"5. c #EECF8C",
"6. c #F1CF84",
"7. c #F1D28D",
"8. c #EDD296",
"9. c #F3D79A",
"0. c #CAC2A7",
"q. c #D6C9A9",
"w. c #CDC8B2",
"e. c #D0C8B3",
"r. c #D9CEB2",
"t. c #DBD2B6",
"y. c #DFD5BA",
"u. c #EAD4A5",
"i. c #EFD9A7",
"p. c #EAD6AC",
"a. c #F5DCA4",
"s. c #F0D9AB",
"d. c #E4D5B4",
"f. c #ECDBB4",
"g. c #E5D9BC",
"h. c #EADCBA",
"j. c #F4E1B5",
"k. c #F3E2BE",
"l. c #E7DCC0",
"z. c #EBDFC3",
"x. c #EEE1C6",
"c. c #EEE2C9",
"v. c #F4E5C5",
"b. c #F2E5CA",
"n. c #F7E8CD",
"m. c #FAEBCF",
/* pixels */
"X X X X X X X X X X X X X X X X X X X . X X X X . X X X X . X X X X X X X X X ",
"X X X X . X X X X X X X X . X X X X X X X X X X X X X X X X X X X X X O X X X ",
"X X X X X X X X X X X X X X X X X X X X X X X X X X X X X X X X X X X X X X X ",
"X X X X X X X X X X X X X X X X X X X X X X X X X X X X X X X X X X X X X X X ",
"X X X X X X . X X X X X . X X X X X X X X X X X X X X X X X X X X X X X X X X ",
"X . X X X X X X X X X . X X X X X X X X X X X . . X X X X X . X X X X X X X X ",
"X X X X X X X X X X X X X X X X X X X X X X X X X X X X X X X X X X X X X X X ",
"X X X X X X X X X X X X X X X X X X . X X X X X X X X X X X X X X X X X X X X ",
"X X X X X X X X X X X X X X X X X X X X . O . . X X . X X X X X X X X O X X X ",
"X X X X X X X X X X X . X X X X X X X X . . . . X X X X X X X X X X X X X X X ",
"X X X X X X X X X X X X X . X X X X X X . . . . X X X X X X X X X X X X X X X ",
"X X . X X X . X X X X X X X X . O > 8 < & +   . X X X X X X X X X X X X X X X ",
"X X X . X X X X X X X X X X X . > m c B B p 9 + . . X X X X X X X X X X X X X ",
"X X X X X X X X X X X X X   O ; x g f k P 0.:.$.q @ X X X . X X X X X X X X X ",
"X X X X X X X X X X X   X = y %.M d s a &.w.e.w.1.K 7 X X X X X X X X X X X X ",
"X X X X X X X X X X X = t %.,.<.N h c n 0.t.y.y.y.l.>.e X X X X X X X X X X X ",
"X X X X . X X X . O w *.w.t.t.t.q.r.t.g.h.h.f.f.p.p.f.2.8 X X X X X X O X X X ",
"X X X X X X X X . * -.v.k.k.f.f.p.u.8.5.6.#...] ] / 3.d.K @ X X X X X X X X X ",
"X . X X X X X X . & L 9.7.#.@.O.| } ~ ~ ~ ~ ! E ! E ~ u.=.= X X X X X X X X X ",
"X X X X X X X X . . v { { } } } } [ ~ ~ ~ ) / / / X.' s.;.-   X X X X X X X X ",
"X X X X . . . X . . r  .o.{ o.o.O.@.#.6.7.9.i.s.f.h.h.h.=.=   X X X X X X X X ",
"X X X X O . . X . . u 8.a.a.j.j.k.v.b.b.c.b.b.z.x.l.l.d.%.@   X X X X X X X X ",
"X X X X . . . . . . y c.m.n.b.c.c.c.c.z.z.z.z.l.f.p.u.d.K o   X X X X O X X X ",
"X X X X . O . . . . w x.m.n.b.c.z.h.f.u.u.4.3.' ] Q ] q.y X X X X X X X X X X ",
"X . X X X X X . . . q g.j.s.8.3.+.` ( W Q R G G G F ` 2.0   X X X X X X X X X ",
"X X X X X X X X . . 3 _  .^ W W U U U G G D S Z C l b i * X X X X X X X X X X ",
"X X X X X X X X . . 1 Y T I I I S A V z j 5 4 2 : $ @ X X X X X X X X X X X X ",
"X X X X X X X X . . = H J k 5 6 4 , % # o   X   X X   X X X X X X X X X X X X ",
"X X X X X X X X X . O % % o O X X X . X X X X X X X   X X X X X X X X X X X X ",
"X X X X X X X X X X X . . . . X X X X X X X X X X X X X X X X X X X X X X X X ",
". X X X X X . X X X X X . X X X X X X X X X X X X X X X X X X X X X X X X X X ",
"X X X X X X X X X X X X X X X X X X X X X X X X X X X X X X X X X X X X X X X ",
"X X X X X X X X X X X X X X X X . X X X X X . X X X X X X X X X X X X X X X X ",
"X X X X X X X X . X X X X X X . X X X X X X X X X X X X X X X X X X X X X . X ",
"X X X X X X X X X X X X X X X X X X X X X X X X X X X X X X X . X X X X X X X ",
". X X X X X X X X X X X X X X X X X X X X X X X X X X X X X X X X X X X X X X "
};
