/* XPM */
static char *_b1a483c247c4347d67f6c9015243a45vvrmlPHOglU1PWw7[] = {
/* columns rows colors chars-per-pixel */
"39 36 131 2 ",
"   c #1F2124",
".  c #202124",
"X  c #2C2325",
"o  c #242925",
"O  c #2C2B2C",
"+  c #392425",
"@  c #352628",
"#  c #342929",
"$  c #3B2C2C",
"%  c #2E342B",
"&  c #32302F",
"*  c #363432",
"=  c #3A3635",
"-  c #3A3A37",
";  c #3E3D3B",
":  c #69311F",
">  c #4D2526",
",  c #442B2A",
"<  c #5A2A27",
"1  c #542B29",
"2  c #692626",
"3  c #6E2827",
"4  c #632B29",
"5  c #7A2F2C",
"6  c #6D3327",
"7  c #62302B",
"8  c #723520",
"9  c #773728",
"0  c #2E4023",
"q  c #394F27",
"w  c #3D5526",
"e  c #4A443F",
"r  c #415231",
"t  c #7A4533",
"y  c #527333",
"u  c #58713D",
"i  c #4B4440",
"p  c #882F25",
"a  c #82322D",
"s  c #8F3A2D",
"d  c #96312C",
"f  c #A43832",
"g  c #A93E36",
"h  c #B13E30",
"j  c #90572E",
"k  c #84563E",
"l  c #A74234",
"z  c #B44036",
"x  c #B74539",
"c  c #815C47",
"v  c #8A5B43",
"b  c #AE4F44",
"n  c #B35747",
"m  c #BC5645",
"M  c #8D6A55",
"N  c #976D56",
"B  c #8F7159",
"V  c #95725A",
"C  c #97745A",
"Z  c #BC6752",
"A  c #BA745E",
"S  c #876E64",
"D  c #8B7D6F",
"F  c #827673",
"G  c #C15041",
"H  c #C76754",
"J  c #CA7F67",
"K  c #D67E64",
"L  c #62823D",
"P  c #638A3B",
"I  c #6A913F",
"U  c #90896C",
"Y  c #8C8071",
"T  c #9D9979",
"R  c #A8836E",
"E  c #AA947C",
"W  c #B6957E",
"Q  c #C7856A",
"!  c #D89A7C",
"~  c #767982",
"^  c #7D8689",
"/  c #5C94BD",
"(  c #6D8FA4",
")  c #7596AC",
"_  c #7F9FB3",
"`  c #7BA3B5",
"'  c #609FCE",
"]  c #62A1CF",
"[  c #6CA6CA",
"{  c #7DABC1",
"}  c #79AFCB",
"|  c #6EAFDB",
" . c #72B3DC",
".. c #7FC9F0",
"X. c #868582",
"o. c #9D978B",
"O. c #818D92",
"+. c #A79A83",
"@. c #AC9B84",
"#. c #AA9E8B",
"$. c #A39C90",
"%. c #B5B084",
"&. c #B5A992",
"*. c #8697A1",
"=. c #D1AD8D",
"-. c #C4AE90",
";. c #C5B293",
":. c #CDB597",
">. c #CBB79B",
",. c #CEBA9C",
"<. c #D3B492",
"1. c #D3BB9B",
"2. c #D9BC98",
"3. c #E1B08C",
"4. c #C3C092",
"5. c #E8C59E",
"6. c #D5C0A1",
"7. c #DCC4A4",
"8. c #E8CBA5",
"9. c #E3CFAA",
"0. c #E9CFAD",
"q. c #E5D1AD",
"w. c #F1D5AF",
"e. c #F3D9AF",
"r. c #E9D5B1",
"t. c #F0D5B1",
"y. c #F4DBB3",
"u. c #F8DEB7",
"i. c #F9E0B7",
"p. c #F9E2B9",
"a. c #82AEC4",
/* pixels */
". . . . . . . . . . .   . . . . . . . . . . . . . . . . . . . . . . . . . . . ",
". . . . . . . . .   . . . . .   .   . . . . .   . . .   . . . . . . . . . . . ",
". . .   . . .   . .   . . . . . . . .   . . . . . . . . . . .   . . . . . . . ",
". . . . . . . . . . . .   . . . . . . . . . .   . . . . . . . . . . . . . . . ",
".   . . . . . . .   . . . . . . . . . . . . . . . . .   . . . . . . . . . . . ",
". . . . . .   . . . . . .   . . . . . . .   . . . . . . . .   . . . . . . . . ",
". . .   . . . . . . . . . . . . . . . . . . . . . . . . . . . . . . . . . . . ",
".   . . . . . .   . . . .   . .   . . . . . . . . . . . . . . . . . . . . O . ",
". .   . . . . . .   . . . . . . . . . .   . . . . . . . . . . . . . . . . . . ",
". . . . . . . . . . . .   . . . . . .     . . .   . . . . . . . . . . . O . . ",
". . . . . . . . . . .   @ 6 5 3 + . O , #     . . . . . . . . . . . . . . . . ",
"  . .     . . . . .     , g h d > $ 9 z l ,     . . . . . . . . . . . . . . . ",
". . . .   . . . . . .   $ s p < < g m Q K x 7 X   . . . . . . . . . . . . . . ",
". . . . . . . . . . . . $ 4 > 5 z Z =.u.y.! G a +   . . . . . . . . . . . . . ",
". . .   . . .   . .   . O < d z R 7.p.p.u.e.3.H d > . . . . . . . . . . . . . ",
"  . . . .   . . . . . X 4 f n =.e.p.i.y.y.e.e.5.J g 2 X . . . . . . . . . . . ",
". . . . . . . . . . . 4 g A <.u.u.y.y.e.y.r.0.w.8.! b 3 X . . . . . . . . . . ",
". . . . . . . . . . . $ R e.p.i.u.u.u.y.y.y.t.t.t.t.W 1 X . . . . . . . . . . ",
"  . . . . . . . . .   & ;.y.2.<.<.<.2.0.7.,.1.,.:.7.@.O   . . . . . . . O . . ",
". . . . . . . . . .   i 7.8.N F X.S C 2.#.` a.{ *.@.@.$ . . . . . . . . . . . ",
". . . . . . . . . . . i 7.7.S } ..O.C <.$.[  .| _ E +.* . . . . . . . . . . . ",
". . . . . . . . . . . i 7.7.N ( [ ~ V :.o./ ] ' ) E @.* . . . . . . . . . . . ",
". . . . . . . . . . . = >.7.v 9 t k N :.+.^ O.O.X.E +.O   . . . . . . . . . . ",
". . .   . . . . . . . O &.7.v 8 9 j N :.6.;.-.;.-.1.+.% . .   . . . . . . . . ",
". . . . . . . .   . r u ;.7.c : : : M 1.r.r.q.q.9.q.%.L r . . . . . . . . . . ",
". . . . . . .     % L I 4.7.c 6 t t B 1.r.q.q.9.9.9.%.P y % . . . . . . . . . ",
". .   . . . . . . O q w T #.D F u D Y @.;.;.;.;.;.;.U 0 0 o . . . . . . . . . ",
". . . . . . . . . . . . q ; ; ; ; e ; - * - = & = * O . . . . . . . . . X . . ",
". . . . .   . . . .   .         . .                   . . . . . . . . . . . . ",
". . . . . . . . . . . . . . . . . . . . . . . . . . . . . . . . . . . . . . . ",
". . . . . . . . . . .   . . . . . . . . . .   . . . . . . . . . . . . . . . . ",
"  .   . . . . . . . . . . . . . . . .   . . . . . . . . . . . . . . . . . . . ",
". . . . . . .   . . . . . . . . . .   . . . . . . . . . . . . . . . . . . . . ",
". . . . .   . . . . .   .   . . . . . .   . . . . . . . . . . . . . . . . . . ",
". . . . . .   . . . . . . . .     . . . . . .   . . .   .   . . . . . . . . . ",
". .   . . . . .   . . .   . . . . . . . . . . . . . . . . . . . . . . . . . . "
};
