/* XPM */
static char *cc0730004dab4e03c9ffe8a30a1ac0769wegqDakIyApMnP6[] = {
/* columns rows colors chars-per-pixel */
"44 50 250 2 ",
"   c #3C1400",
".  c #360109",
"X  c #141334",
"o  c #303137",
"O  c #220620",
"+  c #722E10",
"@  c #5A1C25",
"#  c #483532",
"$  c #79382E",
"%  c #714737",
"&  c #33334E",
"*  c #313A67",
"=  c #2F3060",
"-  c #4B334A",
";  c #6C3746",
":  c #4D3D62",
">  c #36495C",
",  c #3C4674",
"<  c #3C4F6D",
"1  c #504A55",
"2  c #764A50",
"3  c #474C6A",
"4  c #454676",
"5  c #495A78",
"6  c #565778",
"7  c #4E576D",
"8  c #645C7A",
"9  c #6F5465",
"0  c #526377",
"q  c #756974",
"w  c #84383A",
"e  c #884513",
"r  c #B75A1B",
"t  c #98592C",
"y  c #91532B",
"u  c #A7542B",
"i  c #B1592B",
"p  c #A96337",
"a  c #B67438",
"s  c #9C6E33",
"d  c #CC7431",
"f  c #873C46",
"g  c #BA3E58",
"h  c #974A5A",
"j  c #995959",
"k  c #894E59",
"l  c #A64E56",
"z  c #9B644A",
"x  c #986E54",
"c  c #A87845",
"v  c #BB7B56",
"b  c #B26F4F",
"n  c #985762",
"m  c #A85868",
"M  c #BA566C",
"N  c #B65D73",
"B  c #B15267",
"V  c #886466",
"C  c #8F706F",
"Z  c #A56768",
"A  c #B86C66",
"S  c #A86573",
"D  c #B86779",
"F  c #B77677",
"G  c #AE756B",
"H  c #C6784A",
"J  c #CE7850",
"K  c #C95D77",
"L  c #D75978",
"P  c #CF4F72",
"I  c #C6667D",
"U  c #D9637D",
"Y  c #C77768",
"T  c #E25A7E",
"R  c #B2853D",
"E  c #BA9748",
"W  c #B88455",
"Q  c #B18D4B",
"!  c #BCA658",
"~  c #998C6E",
"^  c #BA8778",
"/  c #B59571",
"(  c #B6A870",
")  c #CA8657",
"_  c #DD835A",
"`  c #CD964F",
"'  c #F09050",
"]  c #D2A859",
"[  c #C8AA54",
"{  c #E8A659",
"}  c #F2B65E",
"|  c #CA8C6A",
" . c #C99775",
".. c #D89877",
"X. c #CE8C6F",
"o. c #E99166",
"O. c #E99579",
"+. c #F49A72",
"@. c #C7A96A",
"#. c #D7A862",
"$. c #DBBB66",
"%. c #C9A876",
"&. c #DDA37A",
"*. c #D4BB79",
"=. c #C9B772",
"-. c #F9A46A",
";. c #E6B867",
":. c #FAA979",
">. c #FFBE7A",
",. c #F0B96E",
"<. c #DBC372",
"1. c #E7C36B",
"2. c #E5C978",
"3. c #FDC777",
"4. c #F5D673",
"5. c #FFE47C",
"6. c #545A84",
"7. c #596688",
"8. c #4D6889",
"9. c #7C7F9E",
"0. c #837889",
"q. c #A77B83",
"w. c #BD7988",
"e. c #E55E82",
"r. c #C47688",
"t. c #DC738D",
"y. c #D27289",
"u. c #E37793",
"i. c #EC6A8A",
"p. c #7E8894",
"a. c #8A8887",
"s. c #978D90",
"d. c #AD8586",
"f. c #B5918E",
"g. c #BAA891",
"h. c #9A9AAC",
"j. c #B7A8A5",
"k. c #B9BAB6",
"l. c #B3ACAF",
"z. c #AE9AAA",
"x. c #C69987",
"c. c #D69B84",
"v. c #C6949A",
"b. c #D08B93",
"n. c #E69B84",
"m. c #EF9590",
"M. c #CBA787",
"N. c #D6A786",
"B. c #DCBB8A",
"V. c #D3AE94",
"C. c #D8B699",
"Z. c #C6AF90",
"A. c #EBA987",
"S. c #ECB596",
"D. c #F7B897",
"F. c #F0AF8D",
"G. c #D09BA4",
"H. c #F493AD",
"J. c #C4A7A4",
"K. c #D6BAA4",
"L. c #DDBBBC",
"P. c #D2AAB1",
"I. c #E8A7B4",
"U. c #F5A7B8",
"Y. c #EFB8AF",
"T. c #B9C3BA",
"R. c #D5C38E",
"E. c #E2CA89",
"W. c #FAD68B",
"Q. c #E9CA97",
"!. c #FAC79A",
"~. c #F9D698",
"^. c #EFD08E",
"/. c #EFE78E",
"(. c #D9C7A7",
"). c #CBC6B7",
"_. c #D8C7B8",
"`. c #D6CBB3",
"'. c #FDC7A3",
"]. c #FBC9A4",
"[. c #E9D6A7",
"{. c #FDD9A6",
"}. c #E7C6B8",
"|. c #E8D6B7",
" X c #FDD9B6",
".X c #F0C9B0",
"XX c #EDEAA4",
"oX c #FEE5BD",
"OX c #FAE7B7",
"+X c #F9F0B1",
"@X c #B0BAC6",
"#X c #D9BFC1",
"$X c #F2B6C7",
"%X c #BEC9CB",
"&X c #CBCAC7",
"*X c #D5C6C5",
"=X c #C9D0CC",
"-X c #D9D3D1",
";X c #E5C5C5",
":X c #F9C4C7",
">X c #E9DAC6",
",X c #FAD7C8",
"<X c #FDCBD5",
"1X c #E9D5D5",
"2X c #FFDCDB",
"3X c #FBD6D5",
"4X c #E9CAD0",
"5X c #FAE5C8",
"6X c #FDF5C9",
"7X c #EAE7D7",
"8X c #FCE9D8",
"9X c #FEFCDE",
"0X c #FCF7D7",
"qX c #E9E3C5",
"wX c #FCDAE5",
"eX c #E1D0E2",
"rX c #DDF0EB",
"tX c #E9E6E6",
"yX c #FFE2E4",
"uX c #FFE3EB",
"iX c #FEEBEC",
"pX c #F7EBE7",
"aX c #EBF3ED",
"sX c #FEF4E4",
"dX c #FFFCE4",
"fX c #FDF3ED",
"gX c #FEFDEC",
"hX c #F4F7EA",
"jX c #FEEDF4",
"kX c #FFEEF9",
"lX c #FBE9F3",
"zX c #E7FFFC",
"xX c #ECFEFC",
"cX c #EAF6F7",
"vX c #F5F5F5",
"bX c #FEF3F4",
"nX c #F4FDF6",
"mX c #FEFDF4",
"MX c #FFF4FC",
"NX c #F4FEFD",
"BX c #FFF9FF",
"VX c #FFFAFF",
"CX c #FEF9FD",
"ZX c #F9FFFE",
"AX c #FFFDFF",
"SX c #FFFEFF",
"DX c #FEFEFD",
"FX c #FEFDFD",
"GX c #F4F4FC",
"HX c #D9DFD9",
/* pixels */
"FXFXCXCXDXNXxXNXBXBXBXDXDXDXBXmXgXhXZXDXBXBXBXBXBXmXhX0X6X+X~.~.`.7XdXmXDXDXCXDXDXDXFXmX",
"FXmXMXCXDXZXNXNXBXBXBXDXNXZXDXFXmXmXFXDXDXBXBXBXmXgX0X6X+X+X~.E.g.qXgXmXFXDXBXDXDXDXFXFX",
"nXZXCXCXBXDXDXDXBXBXDXNXzXzXNXZXmXmXDXBXBXBXBXDXgXdX6XXXXX/.E.=.( qXdXgXFXDXDXDXDXDXDXDX",
"xXNXFXFXBXDXDXDXBXBXDXNXzXzXNXNXDXBXBXBXDXBXDXmXdX6X+XXX/./.4.=.R.5XdXgXgXCXDXBXDXDXDXDX",
"zXzXnXFXDXDXDXDXBXBXDXDXNXnXDXDXDXBXBXDXBXDXFXdX6X+XXX/././.4.<.Q.|.9X9XdXfXMXDXDXDXDXDX",
"zXNXNXZXNXZXNXDXDXBXBXDXDXFXFXBXBXDXBXDXDXDXmX9X+XXX/.4.5.5.4.4./.Q.[.6XdXgXmXMXDXBXDXDX",
"CXMXCXFXDXNXNXZXDXBXCXMXCXCXMXBXBXBXDXDXDXmXdX6XXXE.4.1.4.4.4.4.~.<.<.Q.OXdXgXhXDXBXDXDX",
"MXMXBXDXNXNXNXZXBXbXbXkXkXbXkXkXMXBXMXDXmXgX0X+XE.<.1.} } } } } 1.<.2.*.( [.9XmXFXDXDXDX",
"lXMXvXNXxXrXnXFXMXuX$XH.u.H.t.I.<XbXiXfXmX0X6X[.E.E.#.{ { ,.{ { $.} $.2.2.=.R.hXgXFXBXDX",
"MXMXnXxXxXnXFXyXU.t.P e.e.K B n S I.bXbXpXdXOXR.=.@.] #.[ #.| ;.4.} $.1.<.<.R.[.gXmXbXDX",
"MXjXDXFXbXCXiXI.L T i.i.e.K r.S h h b.bXsXdX[.[.^.^.*.,.[ Q Q Q $.[ ] $.<.<.<.R.dXgXbXFX",
"MXjXDXFXbXbXU.U i.e.i.i.i.y.w.@ I l j :XiXsX|.C.+XOX~.~.Q.R.M.! R R ` [ ! ! ( ( 5XgXmXDX",
"NXNXNXFXMX<Xy.U P l L T T l f @ m m n :XfX>Xg.`.5XoX{.!.{.{.[.^.` Q R ` E ! ! ( |.dXnXDX",
"NXNXNXFXuXU.I e.B g M M K L m m D Z v.iXmX1X~ sX6XQ.{.!.!.Q.Q.Q.B.` c E [ [ ! ( (.9XFXBX",
"NXZXBXMX<Xu.K U f b..Xb.f w w f.<XwXCXGXZXNXT.7X8Xx S. X!.].].D.S.&.W R E [ ! ( (.gXDXMX",
"NXZXCXbX$Xe.U M m L.bXwXb.f . F CXbXBXZXnXcX7X7X>X  /  XD.].].| F.S. .Q R Q ! %.`.mXDXGX",
"xXNXZXjXH.L e.M d.fXbXbXwXv.9 s.mXmXbXmXmXmXHXhXqX# K.8X.X,XV.  v D.'. .s s s ( iXCXZXDX",
"xXnXmXbXH.T e.M f.mXFXCXMXMXHXZXbXMXMXmXmXmX7X7XqX|.5X,X8X5X^   ..D.].C.%.W W V.fXCXZXZX",
"ZXmXCXbXu.e.i.N #XDXZXbXMXBXGXZXDXDXvXZXaXgXhX8X|.9X5X X].].!.| ].D.V.M.N. .%.(.vXCXZXZX",
"FXmXCXGXt.e.i.N ;XFXNXvXbXMXDXGXNXZXNXDXmXmXdX5X5X X X X'.!.{.].D.D.C.x.N.%.M.V.bXNXZXZX",
"MXbXCXbXb.K u.N L.mXnXnXBXBXDXZXZXnXaXmXmXsXdX,X XoXN.b D.].!.A.A.S.V.Z.g. .M._.bXNXZXNX",
"MXbXCXCXI.N u.N L.FXnXNXmXbXbXZXmXgX_.`.}.C..XS.S. Xv y F.F.!.F.S.x.^ g.V.K.,XgXCXDXDXZX",
"MXjXFXbX$XD u.I v.bXDXNXZXDXDXmX8XqXC.B.]. .| ) | A.&.&.S.c.D.M.c.F x..X8XsXbXbXCXBXDXBX",
"CXbXDXbX<XD t.I w.iXFXnXnXZXNXhX|.OXM.B.].| _ ) u p X... .&.^ ^ X.G..X,X3XyXbXMXMXBXBXBX",
"lXFXZXmXjXr.K t.N $XMXvXZXnXNXhX5X[.Q.N.A.J d J a u e t s z z z A X.j n 2 V q.#XkXkXMXbX",
"ZXZXnXFXbXI.N t.r.b.<XBXmXZXNXhXqX|. X].D.+.+.o.].:.) p t p b Y X.Y $ + 2 2 9 V f.:XkXbX",
"NXxXNXFXlXwXr.y.I m G.kXCXpXnXZXhX7X}.S.O.O.J i J :.~.~.-.d i u b n.D.c..XG.q.C n d.<XMX",
"zXNXNXFXkXkXI.B w.w.S G.bXCXmXvXDXtXP.b.z Y _ _ d d d ' >.~.>.-.i Y A...8XbXkX$XF n b.jX",
"cXNXZXbXMXMXuXf.n w.D m I.lXMXMXDXBXjX,XY Y Y +.>.>.{ d r d J ' -.) a |  XiXkXkX$Xm Z <X",
"NXNXZXbXMXbXvX<XF n m w.S w.<XMXjXMXkXiXm.H i r d { 3.4.W.-.d r + t ) H ^ jXMXkX2XA j Y.",
"NXZXMXBXDXmXDXFXwXq.h M B N w.v.uXuX3XY.U.:.+.-.` d R d ` -.:.:.p e a :.C.3XuXMX,XF j I.",
"NXZXDXBXvXDXaXFXMXlXG.n h n h k 2 V S l Y o.m.:.!.!.!.D.:.o.J J t t &.O.x.8XjXwX.XA j }.",
"NXnXDXDXDXBXDXDXjXMXbX#Xq.k ; ; - O : k ; 2 C Z A Y O.n.+.D.D.&. .M.z c.D.Y.2Xn.F G J.wX",
"nXnXNXDXDXBXBXDXDXBXbXMXkX4Xf.9 - : 8 8 9 7.9 ; ; f ; f $ $ $ % V 1Xg.G D.Y.A.m.^ C J.1X",
"mXZXDXDXDXDXDXDXCXCXvXDXBXbXkXeXp.7.8.6.5 8.5 7 3 1 - # 1 1 o o o j.jXY.X.c.c.x.d.f._.bX",
"ZXFXDXDXBXDXDXDXNXZXxXZXZXDXMXl.6.7.8.6.6.8.5 5 4 5 4 : < 5 > > 1 q tXmX8X,Xx.z f.J.wXFX",
"FXFXDXDXDXDXDXDXZXNXzXNXNXGXGXh.O : 6.6 7.6., 6.6 4 * * * , < 8.> o q 7XgXfXiX>X*X7XFXDX",
"FXFXBXmXFXFXFXZXNXzXxXxXxXcXZXDX8 O & 0.8 6 6.3 4 = = * , , , 5 0 0 & a.mXmX8XbXmXmXFXZX",
"DXDXBXFXmXmXFXZXNXxXxXNXNXNXGXBX1X# q *Xs.6 7 & 3 6.= X , < * < 0 p.%XNXDXDXFXDXFXFXvXvX",
"DXDXDXFXmXmXmXmXnXNXNXNXZXDXMXMXjX,X4X-Xz.9 & 1 h.GXh.o & 1 1 p.%XrXNXNXDXDXvXDXFXDXDXDX",
"DXDXDXmXmXmXmXmXDXDXGXDXMXMXMXbX2X,X}.g.C 1 & a.bXDXvX0.# 1 C j.k.NXGXDXZXZXZXDXDXDXDXDX",
"DXDXDXFXmXmXmXFXCXDXMXBXMXMX2XbX8Xg.d.s.#X-X#XtXaXFXFXpX_.J.d.g.j.pXZXFXGXCXZXDXDXDXDXFX",
"ZXDXDXmXmXmXmXDXDXDXBXlXMX}.^ Y.l.p.a.k.aXZXNXNXNXzXnXDXiX;Xf.f.K.mXmXFXGXDXZXGXDXDXDXFX",
"ZXZXDXmXmXmXFXDXMXBXBXjXyXx.v f.C s.-XCXBXGXNXxXxXNXnXmXbX}.^ G C.5XdXmXDXDXZXGXDXDXDXCX",
"ZXDXZXFXmXmXDXDXBXBXBXCX}.x | | x k.lXBXMXBXZXZXGXDXBXMXwXG.A A X.C.|.9XmXvXZXZXFXFXFXmX",
"DXZXFXmXmXmXDXDXDXBXMXbXZ.x 2.@.C -XbXMXkXBXBXGXDXMXiXiXY.Z l Y b ].oX|.dXnXZXZXFXFXFXFX",
"DXDXFXmXmXFXDXDXBXBXMXmXC.B.+XW.( 7XfXpXpXtXtXHXrXHXHX8X}.G l b W {.{.Z.7XmXnXaXFXFXmXFX",
"ZXDXFXFXFXDXDXDXZXDXDXgX(.OX{.E.s.).).k.&Xk.T.%XT.=Xk.k.j.d.G G c =./ ~ 0XmXnXZXFXFXFXFX",
"DXDXDXDXDXDXDXDXCXZXDXfX|.Z./ ~ ~ T.&X&X&X&X=X=X=X=X=X&X&X*X*X_.).).).-XhXFXFXmXDXDXDXDX",
"DXDXDXDXDXDXDXDXDXDXDXmXgX5X(.K.-XaXvXhXvXbXvXGXnXbXMXbXvXvXvXvXbXfXZXDXFXFXDXDXDXDXDXDX"
};
